# xmcd
# 
# Track frame offsets:
#	150
#	10265
#	22560
#	35545
#	48480
#	60980
#	70960
#	80832
#	92797
#	104362
#	113647
#	125004
#	135287
#	150345
#	160307
#
# Disc length: 2346 seconds
#
# Revision: 1
# Processed by: cddbd v1.4PL0 Copyright (c) Steve Scherf et al.
# Submitted via: Audio-CD-Archiv 2.10.446
#
DISCID=b409280f
DTITLE=Various Artist - Blue Train
DYEAR=1900
DGENRE=country
TTITLE0=Eddie Wilson - Dankeschoen, Bitteschoen, Wiedersehn (1961)
TTITLE1=Sanford Clark - They Call Me Country (1967)
TTITLE2=Rex Allen - Just Call Me Lonesome (1986)
TTITLE3=Carl and Pearl Butler - Don't Let Me Cross Over (1980)
TTITLE4=Ray Campi and Rosie Flores - Wild Side Of Life (1989)
TTITLE5=Johnny Cash - Ballad Of A Teenage Queen (1958)
TTITLE6=Ned Miller - From A Jack To A King (1957)
TTITLE7=Webb Pierce and Billy Parker - memory Number One (1983)
TTITLE8=Ned Miller - Do What You Do, Do Well (1964)
TTITLE9=Johnny Cash - Blue Train (1962)
TTITLE10=Ray Campi - Honky Tonk Woman (1989)
TTITLE11=Carl and Pearl Butler - Cryin' My Heart Out Over You (1993)
TTITLE12=Rex Allen - Gone Girl (1986)
TTITLE13=Sanford Clark - Step Aside (1966)
TTITLE14=Eddie Wilson - I Wonder Where You Are Tonight (1993)
EXTD=
EXTT0=
EXTT1=
EXTT2=
EXTT3=
EXTT4=
EXTT5=
EXTT6=
EXTT7=
EXTT8=
EXTT9=
EXTT10=
EXTT11=
EXTT12=
EXTT13=
EXTT14=
PLAYORDER=
